<svg width="20" height="20" viewBox="0 0 20 20" fill="none" xmlns="http://www.w3.org/2000/svg">
<path d="M0.833374 16.6667V15.8333C0.833374 14.2862 1.44796 12.8025 2.54192 11.7085C3.63588 10.6146 5.11961 10 6.66671 10C8.2138 10 9.69753 10.6146 10.7915 11.7085C11.8855 12.8025 12.5 14.2862 12.5 15.8333V16.6667" stroke="#737373" stroke-width="1.5" stroke-linecap="round"/>
<path d="M10.8334 11.6667C10.8334 10.5616 11.2724 9.50179 12.0538 8.72039C12.8352 7.93899 13.895 7.5 15 7.5C15.5472 7.5 16.089 7.60777 16.5946 7.81717C17.1001 8.02656 17.5594 8.33348 17.9463 8.72039C18.3332 9.1073 18.6401 9.56663 18.8495 10.0722C19.0589 10.5777 19.1667 11.1195 19.1667 11.6667V12.0833" stroke="#737373" stroke-width="1.5" stroke-linecap="round"/>
<path d="M6.66671 10C7.55076 10 8.39861 9.64881 9.02373 9.02369C9.64885 8.39857 10 7.55072 10 6.66667C10 5.78261 9.64885 4.93477 9.02373 4.30964C8.39861 3.68452 7.55076 3.33333 6.66671 3.33333C5.78265 3.33333 4.93481 3.68452 4.30968 4.30964C3.68456 4.93477 3.33337 5.78261 3.33337 6.66667C3.33337 7.55072 3.68456 8.39857 4.30968 9.02369C4.93481 9.64881 5.78265 10 6.66671 10ZM15 7.5C15.6631 7.5 16.299 7.23661 16.7678 6.76777C17.2366 6.29893 17.5 5.66304 17.5 5C17.5 4.33696 17.2366 3.70107 16.7678 3.23223C16.299 2.76339 15.6631 2.5 15 2.5C14.337 2.5 13.7011 2.76339 13.2323 3.23223C12.7634 3.70107 12.5 4.33696 12.5 5C12.5 5.66304 12.7634 6.29893 13.2323 6.76777C13.7011 7.23661 14.337 7.5 15 7.5Z" stroke="#737373" stroke-width="1.5" stroke-linecap="round" stroke-linejoin="round"/>
</svg>
