<svg width="20" height="20" viewBox="0 0 20 20" fill="none" xmlns="http://www.w3.org/2000/svg">
<path d="M9.99997 3.33331V6.66665M9.99997 3.33331C5.39747 3.33331 1.66664 7.06415 1.66664 11.6666C1.6638 13.4704 2.2489 15.226 3.3333 16.6675H7.0833M9.99997 3.33331C14.6025 3.33331 18.3333 7.06415 18.3333 11.6666C18.3333 13.5433 17.7133 15.275 16.6666 16.6675L12.9166 16.6666M3.3333 6.66665L5.41664 8.74998M14.5833 8.74998L16.6666 6.66665M2.49997 14.1666H4.99997M9.99997 14.1666L10.8333 9.16665M15 14.1666H17.5" stroke="#737373" stroke-width="1.5" stroke-linecap="round" stroke-linejoin="round"/>
<path d="M10 19.1667C10.663 19.1667 11.2989 18.9033 11.7678 18.4345C12.2366 17.9656 12.5 17.3297 12.5 16.6667C12.5 16.0036 12.2366 15.3678 11.7678 14.8989C11.2989 14.4301 10.663 14.1667 10 14.1667C9.33696 14.1667 8.70107 14.4301 8.23223 14.8989C7.76339 15.3678 7.5 16.0036 7.5 16.6667C7.5 17.3297 7.76339 17.9656 8.23223 18.4345C8.70107 18.9033 9.33696 19.1667 10 19.1667Z" stroke="#737373" stroke-width="1.5" stroke-linecap="round" stroke-linejoin="round"/>
</svg>
