<svg width="42" height="42" viewBox="0 0 42 42" fill="none" xmlns="http://www.w3.org/2000/svg">
<circle cx="21" cy="21" r="21" fill="#F2F6FD"/>
<path d="M17.6667 19.0067L17.6733 18.9993M20.3333 19.0067L20.34 18.9993M17.6667 21.6733L17.6733 21.666M20.3333 21.6733L20.34 21.666M17.6667 24.34L17.6733 24.3327M20.3333 24.34L20.34 24.3327M23 27H15.4C15.2939 27 15.1922 26.9579 15.1172 26.8828C15.0421 26.8078 15 26.7061 15 26.6V16.7333C15 16.6272 15.0421 16.5255 15.1172 16.4505C15.1922 16.3755 15.2939 16.3333 15.4 16.3333H19V15.4C19 15.2939 19.0421 15.1922 19.1172 15.1172C19.1922 15.0421 19.2939 15 19.4 15H22.6C22.7061 15 22.8078 15.0421 22.8828 15.1172C22.9579 15.1922 23 15.2939 23 15.4V19M23 27H26.6C26.7061 27 26.8078 26.9579 26.8828 26.8828C26.9579 26.8078 27 26.7061 27 26.6V19.4C27 19.2939 26.9579 19.1922 26.8828 19.1172C26.8078 19.0421 26.7061 19 26.6 19H23M23 27V24.3333M23 19V21.6667M23 24.3333V21.6667M23 24.3333H24.3333M23 21.6667H24.3333" stroke="#1253C9" stroke-width="1.5" stroke-linecap="round" stroke-linejoin="round"/>
</svg>
