<svg width="131" height="28" viewBox="0 0 131 28" fill="none" xmlns="http://www.w3.org/2000/svg">
<g clip-path="url(#clip0_24_4775)">
<path d="M16.8356 2.71973C16.8365 2.11097 16.8683 1.50265 16.9311 0.897135C16.9311 0.880926 16.9311 0.86472 16.9311 0.848511H12.3638C12.4311 1.46998 12.4648 2.09463 12.4646 2.71973C12.4662 6.0957 11.4913 9.40007 9.6574 12.2345C7.82349 15.0689 5.20889 17.3124 2.12878 18.6945L4.353 22.536C4.52229 22.4369 4.69339 22.3415 4.86628 22.2478C7.83416 20.217 11.3565 19.1516 14.9523 19.1971C18.5482 19.2425 22.0425 20.3966 24.9581 22.5018L27.1661 18.6909C24.0875 17.3083 21.4744 15.065 19.6416 12.2313C17.8087 9.39767 16.8343 6.09449 16.8356 2.71973Z" fill="#BDBDBF"/>
<path d="M10.9032 2.71973C10.9019 2.09431 10.864 1.4695 10.7897 0.848511L6.53577 1.749C6.56279 2.07138 6.5772 2.39556 6.5772 2.72334C6.57711 4.90976 5.95978 7.05174 4.79623 8.90285C3.63267 10.754 1.97017 12.239 0 13.1871L1.34353 17.3293C4.18522 16.0878 6.60311 14.0444 8.30107 11.4495C9.99902 8.85459 10.9033 5.8208 10.9032 2.71973Z" fill="#084B99"/>
<path d="M22.7249 2.71973C22.7249 2.39195 22.7393 2.06778 22.7663 1.7454L18.5124 0.84491C18.1046 4.23871 18.8013 7.67358 20.4993 10.6403C22.1972 13.6069 24.8059 15.9475 27.9387 17.3149L29.2823 13.1727C27.3172 12.2229 25.6596 10.7384 24.4998 8.88956C23.3399 7.04068 22.7248 4.9023 22.7249 2.71973Z" fill="#084B99"/>
<path d="M24.18 23.8633C21.4226 21.8243 18.0797 20.7318 14.6504 20.749C11.2211 20.7662 7.88936 21.8922 5.15259 23.9587L8.0972 27.1681C9.88721 25.9195 11.9929 25.2008 14.1727 25.0944C16.3526 24.988 18.5183 25.4982 20.4213 26.5665C20.7311 26.7466 21.0265 26.9267 21.3218 27.123L24.18 23.8633Z" fill="#084B99"/>
</g>
<path d="M46.6332 8.25903V19.6907H43V11.8847C43.002 10.9225 43.3856 10.0003 44.0668 9.32052C44.7479 8.64078 45.6709 8.25903 46.6332 8.25903Z" fill="#084B99"/>
<path d="M47.7922 8.25476H51.1759L55.5939 14.5784V8.25476H59.0106V19.6864H55.5939L51.2004 13.4097V19.6864H47.7922V8.25476Z" fill="#084B99"/>
<path d="M60.1454 8.25903H65.5306C66.5927 8.25903 67.4505 8.40122 68.1038 8.68559C68.7345 8.9496 69.2908 9.36449 69.7236 9.8938C70.1577 10.4328 70.4737 11.057 70.6514 11.7258C70.8472 12.4477 70.944 13.1928 70.9393 13.9407C70.9393 15.1621 70.7971 16.1094 70.5128 16.7826C70.2472 17.4279 69.8414 18.0059 69.3248 18.475C68.8621 18.9054 68.3019 19.2172 67.6922 19.3835C66.9882 19.5789 66.2622 19.6839 65.5317 19.696H60.1465L60.1454 8.25903ZM63.7711 10.8471V17.0887H64.6594C65.4179 17.0887 65.9565 17.0069 66.275 16.8434C66.6188 16.6544 66.8853 16.3505 67.0278 15.985C67.2091 15.5776 67.3001 14.9161 67.3008 14.0004C67.3008 12.7919 67.0978 11.9629 66.6919 11.5136C66.286 11.0643 65.6138 10.8407 64.6754 10.8429L63.7711 10.8471Z" fill="#084B99"/>
<path d="M81.6894 8.25903H83.3093V15.0689C83.3148 15.7204 83.2065 16.3678 82.9894 16.982C82.7769 17.5515 82.4471 18.0698 82.0212 18.5034C81.5953 18.937 81.083 19.2761 80.5175 19.4987C79.8123 19.7546 78.9666 19.8826 77.9806 19.8826C77.3561 19.8792 76.7323 19.84 76.1123 19.7653C75.5247 19.7128 74.9512 19.5557 74.4188 19.3014C73.9454 19.0547 73.5231 18.7203 73.1744 18.3161C72.8262 17.937 72.563 17.488 72.4023 16.9991C72.1957 16.3751 72.0825 15.724 72.0664 15.0668V8.25903H75.6836V15.231C75.6836 15.8552 75.8613 16.3422 76.2168 16.692C76.5722 17.0418 77.0638 17.2166 77.6916 17.2166C78.3151 17.2166 78.8049 17.0439 79.161 16.6984C79.5172 16.3529 79.6949 15.8634 79.6942 15.23V10.251C79.6954 9.72252 79.906 9.21602 80.2801 8.8426C80.6541 8.46917 81.1609 8.25931 81.6894 8.25903Z" fill="#084B99"/>
<path d="M104.766 8.25903H106.342V15.0689C106.348 15.7204 106.239 16.3678 106.022 16.982C105.808 17.577 105.458 18.1143 105.002 18.5518C104.591 18.9685 104.096 19.2915 103.549 19.4987C102.845 19.7546 102 19.8826 101.013 19.8826C100.389 19.8791 99.765 19.8399 99.145 19.7653C98.5574 19.7125 97.984 19.5554 97.4516 19.3014C96.9786 19.0543 96.5568 18.72 96.2082 18.3161C95.8593 17.9376 95.5959 17.4884 95.4361 16.9991C95.2291 16.3751 95.1156 15.724 95.0991 15.0668V8.25903H98.7174V15.231C98.7174 15.8552 98.8951 16.3422 99.2505 16.692C99.606 17.0418 100.098 17.2166 100.725 17.2166C101.349 17.2166 101.838 17.0439 102.194 16.6984C102.549 16.3529 102.727 15.8634 102.727 15.23V10.2937C102.728 9.75367 102.943 9.23616 103.326 8.85471C103.708 8.47326 104.226 8.25903 104.766 8.25903Z" fill="#084B99"/>
<path d="M83.3712 19.6694L87.3947 8.23773H91.1387L95.1611 19.6694H91.496L91.0598 18.1615H87.3947L86.9735 19.6694H83.3712ZM89.2363 11.6832L88.0974 15.7792H90.4211L89.2363 11.6832Z" fill="#084B99"/>
<path d="M107.481 8.23773H117.774V11.2385H114.468V19.6694H110.788V11.2385H107.482L107.481 8.23773Z" fill="#084B99"/>
<path d="M130.21 13.9365C130.21 17.815 127.637 20 124.315 20C120.79 20 118.436 17.783 118.436 13.9046C118.436 10.3268 120.822 8 124.315 8C128.323 8 130.21 10.9251 130.21 13.9365ZM122.117 13.9365C122.117 15.3932 122.553 17.2135 124.315 17.2135C125.906 17.2135 126.53 15.8208 126.53 13.9365C126.53 12.385 125.906 10.7374 124.284 10.7865C122.615 10.7865 122.117 12.4959 122.117 13.9365Z" fill="#084B99"/>
<defs>
<clipPath id="clip0_24_4775">
<rect width="29.697" height="28" fill="white"/>
</clipPath>
</defs>
</svg>
