<svg width="20" height="20" viewBox="0 0 20 20" fill="none" xmlns="http://www.w3.org/2000/svg">
<path d="M5.83337 15H11.6667M5.83337 11.6667H6.66671M5.83337 8.33332H8.33337M5.83337 1.66666H13.75L17.5 5.41666V15.8333" stroke="#737373" stroke-width="1.5" stroke-linecap="round" stroke-linejoin="round"/>
<path d="M2.5 17.0833V5.41666C2.5 5.08514 2.6317 4.76719 2.86612 4.53277C3.10054 4.29835 3.41848 4.16666 3.75 4.16666H11.8767C12.0092 4.16677 12.1363 4.21953 12.23 4.31332L14.8533 6.93666C14.9 6.98324 14.9369 7.03859 14.9621 7.09951C14.9873 7.16044 15.0002 7.22574 15 7.29166V17.0833C15 17.4148 14.8683 17.7328 14.6339 17.9672C14.3995 18.2016 14.0815 18.3333 13.75 18.3333H3.75C3.41848 18.3333 3.10054 18.2016 2.86612 17.9672C2.6317 17.7328 2.5 17.4148 2.5 17.0833Z" stroke="#737373" stroke-width="1.5" stroke-linecap="round" stroke-linejoin="round"/>
<path d="M11.6666 4.16666V6.99999C11.6666 7.1326 11.7193 7.25978 11.8131 7.35354C11.9068 7.44731 12.034 7.49999 12.1666 7.49999H15" stroke="#737373" stroke-width="1.5" stroke-linecap="round" stroke-linejoin="round"/>
</svg>
