<svg width="32" height="32" viewBox="0 0 32 32" fill="none" xmlns="http://www.w3.org/2000/svg">
<circle cx="16" cy="16" r="15.5" stroke="#E5E5E5"/>
<path d="M12.6667 14L16 16.3333L19.3334 14" stroke="#C3C5C9" stroke-width="1.5" stroke-linecap="round" stroke-linejoin="round"/>
<path d="M9.33331 19.3333V12.6666C9.33331 12.313 9.47379 11.9739 9.72384 11.7238C9.97389 11.4738 10.313 11.3333 10.6666 11.3333H21.3333C21.6869 11.3333 22.0261 11.4738 22.2761 11.7238C22.5262 11.9739 22.6666 12.313 22.6666 12.6666V19.3333C22.6666 19.6869 22.5262 20.0261 22.2761 20.2761C22.0261 20.5262 21.6869 20.6666 21.3333 20.6666H10.6666C10.313 20.6666 9.97389 20.5262 9.72384 20.2761C9.47379 20.0261 9.33331 19.6869 9.33331 19.3333Z" stroke="#C3C5C9" stroke-width="1.5"/>
</svg>
