<svg width="20" height="20" viewBox="0 0 20 20" fill="none" xmlns="http://www.w3.org/2000/svg">
<path d="M11.6667 11.6667V5.00001M11.6667 11.6667L16.7517 14.5725C16.8277 14.616 16.9137 14.6388 17.0013 14.6385C17.0888 14.6383 17.1748 14.6151 17.2506 14.5712C17.3263 14.5274 17.3892 14.4644 17.433 14.3885C17.4768 14.3127 17.4999 14.2267 17.5 14.1392V2.52751C17.5 2.43989 17.477 2.35379 17.4333 2.27786C17.3896 2.20192 17.3267 2.1388 17.2509 2.09483C17.1751 2.05086 17.0891 2.02758 17.0015 2.02732C16.9139 2.02705 16.8277 2.04982 16.7517 2.09334L11.6667 5.00001M11.6667 11.6667H5.83333M11.6667 5.00001H5.83333C4.94928 5.00001 4.10143 5.3512 3.47631 5.97632C2.85119 6.60144 2.5 7.44929 2.5 8.33334C2.5 9.2174 2.85119 10.0652 3.47631 10.6904C4.10143 11.3155 4.94928 11.6667 5.83333 11.6667M5.83333 11.6667L6.46417 16.0833C6.52999 16.5131 6.76273 16.8994 7.11182 17.1585C7.46091 17.4176 7.89814 17.5284 8.32849 17.4669C8.75884 17.4054 9.14754 17.1766 9.41013 16.8302C9.67271 16.4837 9.78796 16.0476 9.73083 15.6167L9.16667 11.6667H5.83333Z" stroke="#737373" stroke-width="1.5"/>
</svg>
