<svg width="20" height="20" viewBox="0 0 20 20" fill="none" xmlns="http://www.w3.org/2000/svg">
<path d="M15.1117 9.16669C15.5958 13.6459 17.5 15 17.5 15H2.5C2.5 15 5 13.2225 5 7.00002C5 5.58585 5.52667 4.22919 6.46417 3.22919C7.4025 2.22919 8.675 1.66669 10 1.66669C10.2808 1.66669 10.56 1.69169 10.8333 1.74169M11.4417 17.5C11.2953 17.7528 11.0851 17.9627 10.8321 18.1085C10.579 18.2544 10.2921 18.3312 10 18.3312C9.70792 18.3312 9.42097 18.2544 9.16794 18.1085C8.9149 17.9627 8.70467 17.7528 8.55833 17.5M15.8333 6.66669C16.4964 6.66669 17.1323 6.40329 17.6011 5.93445C18.0699 5.46561 18.3333 4.82973 18.3333 4.16669C18.3333 3.50365 18.0699 2.86776 17.6011 2.39892C17.1323 1.93008 16.4964 1.66669 15.8333 1.66669C15.1703 1.66669 14.5344 1.93008 14.0656 2.39892C13.5967 2.86776 13.3333 3.50365 13.3333 4.16669C13.3333 4.82973 13.5967 5.46561 14.0656 5.93445C14.5344 6.40329 15.1703 6.66669 15.8333 6.66669Z" stroke="#737373" stroke-width="1.5" stroke-linecap="round" stroke-linejoin="round"/>
</svg>
