<svg width="42" height="42" viewBox="0 0 42 42" fill="none" xmlns="http://www.w3.org/2000/svg">
<circle cx="21" cy="21" r="21" fill="#F2F6FD"/>
<path d="M16.3333 26.3334V25.6667C16.3333 24.429 16.8249 23.242 17.7001 22.3669C18.5753 21.4917 19.7622 21 20.9999 21M20.9999 21C22.2376 21 23.4246 21.4917 24.2997 22.3669C25.1749 23.242 25.6666 24.429 25.6666 25.6667V26.3334M20.9999 21C21.7072 21 22.3854 20.7191 22.8855 20.219C23.3856 19.7189 23.6666 19.0406 23.6666 18.3334C23.6666 17.6261 23.3856 16.9478 22.8855 16.4477C22.3854 15.9476 21.7072 15.6667 20.9999 15.6667C20.2927 15.6667 19.6144 15.9476 19.1143 16.4477C18.6142 16.9478 18.3333 17.6261 18.3333 18.3334C18.3333 19.0406 18.6142 19.7189 19.1143 20.219C19.6144 20.7191 20.2927 21 20.9999 21Z" stroke="#1253C9" stroke-width="1.5" stroke-linecap="round" stroke-linejoin="round"/>
</svg>
