<svg width="42" height="42" viewBox="0 0 42 42" fill="none" xmlns="http://www.w3.org/2000/svg">
<circle cx="21" cy="21" r="21" fill="#1253C9"/>
<path d="M16.3333 26.3334V25.6667C16.3333 24.429 16.825 23.242 17.7001 22.3669C18.5753 21.4917 19.7623 21 21 21M21 21C22.2377 21 23.4246 21.4917 24.2998 22.3669C25.175 23.242 25.6666 24.429 25.6666 25.6667V26.3334M21 21C21.7072 21 22.3855 20.7191 22.8856 20.219C23.3857 19.7189 23.6666 19.0406 23.6666 18.3334C23.6666 17.6261 23.3857 16.9478 22.8856 16.4477C22.3855 15.9476 21.7072 15.6667 21 15.6667C20.2927 15.6667 19.6145 15.9476 19.1144 16.4477C18.6143 16.9478 18.3333 17.6261 18.3333 18.3334C18.3333 19.0406 18.6143 19.7189 19.1144 20.219C19.6145 20.7191 20.2927 21 21 21Z" stroke="white" stroke-width="1.5" stroke-linecap="round" stroke-linejoin="round"/>
</svg>
