<svg width="20" height="20" viewBox="0 0 20 20" fill="none" xmlns="http://www.w3.org/2000/svg">
<path d="M5.83337 15V14.1667C5.83337 13.0616 6.27236 12.0018 7.05376 11.2204C7.83516 10.439 8.89497 10 10 10C11.1051 10 12.1649 10.439 12.9463 11.2204C13.7277 12.0018 14.1667 13.0616 14.1667 14.1667V15" stroke="#737373" stroke-width="1.5" stroke-linecap="round"/>
<path d="M10 10C10.663 10 11.2989 9.73661 11.7678 9.26777C12.2366 8.79893 12.5 8.16304 12.5 7.5C12.5 6.83696 12.2366 6.20107 11.7678 5.73223C11.2989 5.26339 10.663 5 10 5C9.33696 5 8.70107 5.26339 8.23223 5.73223C7.76339 6.20107 7.5 6.83696 7.5 7.5C7.5 8.16304 7.76339 8.79893 8.23223 9.26777C8.70107 9.73661 9.33696 10 10 10Z" stroke="#737373" stroke-width="1.5" stroke-linecap="round" stroke-linejoin="round"/>
<path d="M17.5 3V17C17.5 17.1326 17.4473 17.2598 17.3536 17.3536C17.2598 17.4473 17.1326 17.5 17 17.5H3C2.86739 17.5 2.74021 17.4473 2.64645 17.3536C2.55268 17.2598 2.5 17.1326 2.5 17V3C2.5 2.86739 2.55268 2.74021 2.64645 2.64645C2.74021 2.55268 2.86739 2.5 3 2.5H17C17.1326 2.5 17.2598 2.55268 17.3536 2.64645C17.4473 2.74021 17.5 2.86739 17.5 3Z" stroke="#737373" stroke-width="1.5" stroke-linecap="round" stroke-linejoin="round"/>
</svg>
