<svg width="20" height="20" viewBox="0 0 20 20" fill="none" xmlns="http://www.w3.org/2000/svg">
<path d="M2.5 17V3C2.5 2.86739 2.55268 2.74021 2.64645 2.64645C2.74021 2.55268 2.86739 2.5 3 2.5H17C17.1326 2.5 17.2598 2.55268 17.3536 2.64645C17.4473 2.74021 17.5 2.86739 17.5 3V17C17.5 17.1326 17.4473 17.2598 17.3536 17.3536C17.2598 17.4473 17.1326 17.5 17 17.5H3C2.86739 17.5 2.74021 17.4473 2.64645 17.3536C2.55268 17.2598 2.5 17.1326 2.5 17Z" stroke="#737373" stroke-width="1.5"/>
<path d="M12.5 7.08331C11.9292 6.51248 10.9242 6.11581 10 6.09081M10 6.09081C8.9 6.06081 7.91667 6.55831 7.91667 7.91665C7.91667 10.4166 12.5 9.16665 12.5 11.6666C12.5 13.0925 11.28 13.705 10 13.6591M10 6.09081V4.58331M7.5 12.5C8.03667 13.2166 9.03583 13.625 10 13.6591M10 13.6591V15.4166" stroke="#737373" stroke-width="1.5" stroke-linecap="round" stroke-linejoin="round"/>
</svg>
