<svg width="32" height="32" viewBox="0 0 32 32" fill="none" xmlns="http://www.w3.org/2000/svg">
<circle cx="16" cy="16" r="15.5" stroke="#E5E5E5"/>
<g clip-path="url(#clip0_88_2788)">
<path fill-rule="evenodd" clip-rule="evenodd" d="M21.3059 10.6721C19.9026 9.26709 18.0363 8.49301 16.0481 8.49219C11.9511 8.49219 8.61673 11.8264 8.61508 15.9245C8.61453 17.2346 8.95676 18.5134 9.60724 19.6406L8.55273 23.4922L12.4931 22.4586C13.5788 23.0508 14.8011 23.3629 16.045 23.3633H16.0482C20.1447 23.3633 23.4794 20.0287 23.481 15.9305C23.4818 13.9443 22.7094 12.0769 21.3059 10.6721ZM16.0481 22.108H16.0455C14.937 22.1075 13.8498 21.8096 12.9011 21.2469L12.6756 21.1129L10.3374 21.7263L10.9615 19.4466L10.8145 19.2128C10.1961 18.2292 9.86954 17.0923 9.87009 15.925C9.87137 12.5188 12.6429 9.74756 16.0505 9.74756C17.7007 9.74811 19.2519 10.3915 20.4182 11.5593C21.5846 12.7271 22.2266 14.2792 22.226 15.93C22.2246 19.3365 19.4533 22.108 16.0481 22.108ZM19.4368 17.481C19.2511 17.388 18.338 16.9388 18.1677 16.8768C17.9976 16.8148 17.8736 16.7839 17.7499 16.9698C17.6261 17.1556 17.2702 17.574 17.1618 17.6979C17.0534 17.8219 16.9452 17.8374 16.7594 17.7444C16.5737 17.6515 15.9753 17.4553 15.2658 16.8226C14.7138 16.3301 14.3411 15.7219 14.2327 15.5361C14.1245 15.35 14.2318 15.2592 14.3141 15.157C14.5152 14.9074 14.7165 14.6456 14.7784 14.5218C14.8404 14.3978 14.8094 14.2893 14.7628 14.1964C14.7165 14.1035 14.3451 13.1893 14.1904 12.8173C14.0395 12.4553 13.8865 12.5042 13.7724 12.4985C13.6642 12.4931 13.5403 12.492 13.4165 12.492C13.2927 12.492 13.0915 12.5385 12.9212 12.7245C12.751 12.9104 12.2712 13.3597 12.2712 14.2738C12.2712 15.188 12.9367 16.0711 13.0296 16.1951C13.1224 16.319 14.3392 18.1949 16.2022 18.9993C16.6454 19.1909 16.9912 19.305 17.261 19.3906C17.706 19.532 18.1107 19.512 18.4308 19.4642C18.7877 19.4109 19.5295 19.0149 19.6844 18.5811C19.8392 18.1472 19.8392 17.7755 19.7927 17.6979C19.7463 17.6205 19.6225 17.574 19.4368 17.481Z" fill="#C3C5C9"/>
</g>
<defs>
<clipPath id="clip0_88_2788">
<rect width="16" height="16" fill="white" transform="translate(8 8)"/>
</clipPath>
</defs>
</svg>
